<svg width="50px" height="39px" viewBox="0 0 512 512" xmlns="http://www.w3.org/2000/svg"><path d="m480 447.438-16 16.008h-392a63.992 63.992 0 0 1 21.9-48.2l.017-.015a63.989 63.989 0 0 1 42.093-15.794h47.672l13.854-8.873a197.118 197.118 0 0 1 106.314-31.127h13.074a197.113 197.113 0 0 1 95.725 24.805l27.351 15.196 40 16z" fill="#f85542"/><circle cx="153.699" cy="448" fill="#f8f8f8" r="32"/><circle cx="409.699" cy="448" fill="#f8f8f8" r="32"/><path d="m153.7 488a40 40 0 1 1 40-40 40.047 40.047 0 0 1 -40 40zm0-64a24 24 0 1 0 24 24 24.027 24.027 0 0 0 -24-24z" fill="#62666a"/><path d="m409.7 488a40 40 0 1 1 40-40 40.047 40.047 0 0 1 -40 40zm0-64a24 24 0 1 0 24 24 24.027 24.027 0 0 0 -24-24z" fill="#62666a"/><path d="m184 400v-.562h-.319z" fill="#4298d1"/><path d="m392 375.438.564-.835a197.037 197.037 0 0 0 -75.641-15.165h-13.074a197.118 197.118 0 0 0 -106.314 31.127l-13.535 8.669v.2h184z" fill="#4298d1"/><path d="m304 407.438a8 8 0 0 1 -8-8v-40a8 8 0 0 1 16 0v40a8 8 0 0 1 -8 8z" fill="#3474a6"/><path d="m208 399.438h16v64h-16z" fill="#c94536"/><path d="m291.305 463.445 18.351-18.351a8 8 0 0 0 2.344-5.656v-40h-16v36.687l-27.32 27.32z" fill="#c94536"/><path d="m464 423.438h16v16h-16z" fill="#ff9201"/><path d="m80 423.438h24v16h-24z" fill="#ff9201"/><circle cx="176" cy="375.438" fill="#bef5fa" r="24"/><circle cx="240" cy="351.438" fill="#bef5fa" r="48"/><path d="m287.161 360.222a196.972 196.972 0 0 0 -81 25.247 47.971 47.971 0 0 0 81-25.247z" fill="#b1e4e9"/><circle cx="328" cy="351.438" fill="#bef5fa" r="40"/><path d="m328 391.438a39.909 39.909 0 0 0 37.323-25.933 197.069 197.069 0 0 0 -48.4-6.067h-13.074c-4.976 0-9.934.215-14.873.588a39.98 39.98 0 0 0 39.024 31.412z" fill="#b1e4e9"/><circle cx="384" cy="359.438" fill="#bef5fa" r="24"/><path d="m360.534 364.424a23.853 23.853 0 0 0 38.958 13.205 196.966 196.966 0 0 0 -38.958-13.205z" fill="#b1e4e9"/><circle cx="464" cy="351.438" fill="#bef5fa" r="24"/><circle cx="96" cy="391.438" fill="#bef5fa" r="24"/><path d="m117.292 402.293a63.945 63.945 0 0 0 -23.373 12.936c.7.061 1.368.209 2.081.209a23.91 23.91 0 0 0 21.292-13.145z" fill="#b1e4e9"/><circle cx="68" cy="419.438" fill="#bef5fa" r="28"/><path d="m96 419.438a28.09 28.09 0 0 0 -.547-5.431c-.507.416-1.042.792-1.537 1.224l-.018.016a63.909 63.909 0 0 0 -19.563 31.408 27.967 27.967 0 0 0 21.665-27.217z" fill="#b1e4e9"/><circle cx="288" cy="271.438" fill="#bef5fa" r="16"/><g fill="#69b9e7"><path d="m248 159.438h16v16h-16z"/><path d="m248 191.438h16v24h-16z"/><path d="m248 231.438h16v16h-16z"/><path d="m200 199.438h16v16h-16z"/><path d="m200 159.438h16v24h-16z"/><path d="m200 231.438h16v24h-16z"/><path d="m200 271.438h16v16h-16z"/><path d="m104 199.438h16v16h-16z"/><path d="m104 159.438h16v24h-16z"/><path d="m104 231.438h16v24h-16z"/><path d="m104 271.438h16v16h-16z"/><path d="m152 159.438h16v16h-16z"/><path d="m152 191.438h16v24h-16z"/><path d="m152 263.438h16v24h-16z"/><path d="m152 231.438h16v16h-16z"/><path d="m152 303.438h16v16h-16z"/><path d="m392 199.438h16v16h-16z"/><path d="m392 159.438h16v24h-16z"/><path d="m392 231.438h16v24h-16z"/><path d="m392 271.438h16v16h-16z"/><path d="m296 199.438h16v16h-16z"/><path d="m296 159.438h16v24h-16z"/><path d="m344 159.438h16v16h-16z"/><path d="m344 191.438h16v24h-16z"/><path d="m344 263.438h16v24h-16z"/><path d="m344 231.438h16v16h-16z"/></g><path d="m240 24.562h32v73.804h-32z" fill="#b9b9b9"/><path d="m240 64h32v24.562h-32z" fill="#ababab"/><path d="m456 120h-400a16 16 0 0 1 -16-16 15.192 15.192 0 0 1 16-15.438h400a15.192 15.192 0 0 1 16 15.438 16 16 0 0 1 -16 16z" fill="#cdcdcd"/></svg>